# xmcd
#
# Track frame offsets:
#	150
#	14378
#	32688
#	47953
#	68067
#	82581
#	97490
#	112375
#	130821
#	148026
#	165655
#	184594
#	197076
#	213440
#	230352
#	259915
#
# Disc length: 3480 seconds
#
# Revision: 2
# Processed by: cddbd v1.5.2PL0 Copyright (c) Steve Scherf et al.
# Submitted via: audiograbber 1.83.01
#
DISCID=e70d9610
DTITLE=Chartbuster Country Hits Of February - CB60348
DYEAR=2006
DGENRE=Karaoke
TTITLE0=Jennings, Shooter - Steady At The Wheel
TTITLE1=Randy Rogers Band - Down And Out
TTITLE2=Krauss, Alison and Union Station - My Poor Old Heart
TTITLE3=Bennet, Eric, M. McDonald, Wynnona and T. Dexter - Heart Of America
TTITLE4=Bates, Jeff - No Shame
TTITLE5=Haynes, Susan - Drinkin' In My Sunday Dress
TTITLE6=Dean , Billy - Shine On
TTITLE7=Dean, Tyler - Somebody Who Would Die For You
TTITLE8=Grant, Natalie - What Are You Waiting For
TTITLE9=Griggs, Andy - I Never Had A Chance
TTITLE10=Lonestar - I'll Be Tryin'
TTITLE11=Roberts, Julie - First To Never Know
TTITLE12=Raye, Collin - I Know That's Right
TTITLE13=Crowell, Rodney - Say You Love Me
TTITLE14=Underwood, Carrie - Some Hearts
TTITLE15=data track - data track
EXTD=
EXTT0=
EXTT1=
EXTT2=
EXTT3=
EXTT4=
EXTT5=
EXTT6=
EXTT7=
EXTT8=
EXTT9=
EXTT10=
EXTT11=
EXTT12=
EXTT13=
EXTT14=
EXTT15=
PLAYORDER=
